<?xml version="1.0" encoding="utf-8"?>
<!-- Generator: Adobe Illustrator 16.0.0, SVG Export Plug-In . SVG Version: 6.00 Build 0)  -->
<!DOCTYPE svg PUBLIC "-//W3C//DTD SVG 1.1//EN" "http://www.w3.org/Graphics/SVG/1.1/DTD/svg11.dtd">
<svg version="1.1" id="Layer_1" xmlns="http://www.w3.org/2000/svg" xmlns:xlink="http://www.w3.org/1999/xlink" x="0px" y="0px"
	 width="300px" height="300px" viewBox="0 0 300 300" enable-background="new 0 0 300 300" xml:space="preserve">
<g>
	<path fill="#231F20" d="M125.463,152.125h-2.845c-0.341,0-0.618-0.277-0.618-0.619v-3.201c0-0.341,0.277-0.618,0.618-0.618h2.845
		c0.342,0,0.619,0.277,0.619,0.618v3.201C126.082,151.848,125.805,152.125,125.463,152.125L125.463,152.125z M123.237,150.888h1.608
		v-1.964h-1.608V150.888L123.237,150.888z"/>
	<path fill="#231F20" d="M177.471,152.276c-2.184,0-3.961-1.776-3.961-3.96c0-0.889,0.29-1.73,0.839-2.433
		c0.169-0.216,0.459-0.295,0.712-0.196c2.713,1.056,4.313,3.68,4.442,5.612c0.017,0.254-0.124,0.492-0.354,0.601
		C178.617,152.149,178.052,152.276,177.471,152.276L177.471,152.276z M175.066,147.04c-0.211,0.391-0.32,0.824-0.32,1.276
		c0,1.502,1.223,2.723,2.725,2.723c0.25,0,0.497-0.033,0.737-0.103C177.926,149.548,176.775,147.889,175.066,147.04L175.066,147.04z
		"/>
	<path fill="#231F20" d="M166.763,164.852c-3.944,0-7.153-3.209-7.153-7.152c0-3.945,3.209-7.154,7.153-7.154
		s7.153,3.208,7.153,7.154C173.916,161.643,170.707,164.852,166.763,164.852L166.763,164.852z M166.763,151.782
		c-3.263,0-5.917,2.653-5.917,5.917c0,3.262,2.654,5.916,5.917,5.916s5.916-2.654,5.916-5.916
		C172.679,154.436,170.025,151.782,166.763,151.782L166.763,151.782z"/>
	<path fill="#231F20" d="M166.763,161.186c-1.923,0-3.485-1.564-3.485-3.486c0-1.923,1.563-3.486,3.485-3.486
		c1.922,0,3.486,1.563,3.486,3.486C170.249,159.621,168.685,161.186,166.763,161.186L166.763,161.186z M166.763,155.449
		c-1.239,0-2.249,1.009-2.249,2.25c0,1.24,1.01,2.249,2.249,2.249c1.24,0,2.249-1.009,2.249-2.249
		C169.012,156.458,168.003,155.449,166.763,155.449L166.763,155.449z"/>
	<path fill="#231F20" d="M134.488,164.852c-3.945,0-7.154-3.209-7.154-7.152c0-3.945,3.209-7.154,7.154-7.154
		c3.944,0,7.153,3.208,7.153,7.154C141.641,161.643,138.432,164.852,134.488,164.852L134.488,164.852z M134.488,151.782
		c-3.263,0-5.917,2.653-5.917,5.917c0,3.262,2.654,5.916,5.917,5.916c3.262,0,5.916-2.654,5.916-5.916
		C140.404,154.436,137.75,151.782,134.488,151.782L134.488,151.782z"/>
	<path fill="#231F20" d="M177.833,159.711h-4.688c-0.187,0-0.363-0.085-0.48-0.23c-0.118-0.146-0.163-0.338-0.123-0.52
		c0.092-0.423,0.138-0.847,0.138-1.262c0-3.264-2.653-5.917-5.916-5.917s-5.917,2.653-5.917,5.917c0,0.415,0.047,0.839,0.139,1.262
		c0.041,0.182-0.006,0.373-0.123,0.52c-0.117,0.146-0.293,0.23-0.481,0.23h-19.51c-0.187,0-0.364-0.085-0.482-0.23
		c-0.117-0.146-0.162-0.338-0.122-0.52c0.091-0.423,0.138-0.848,0.138-1.262c0-3.264-2.654-5.917-5.916-5.917
		c-3.263,0-5.917,2.653-5.917,5.917c0,0.415,0.046,0.839,0.138,1.262c0.04,0.182-0.005,0.373-0.122,0.518
		c-0.118,0.146-0.295,0.232-0.482,0.232h-4.42c-0.929,0-1.685-0.757-1.685-1.686v-11.27c0-0.92,0.74-1.67,1.657-1.685
		c0.934-0.078,3.493-0.428,4.461-1.146c1.748-1.296,5.296-5.207,6.806-7.012c1.077-1.287,2.512-1.912,4.387-1.912h13.803
		c0.027,0,0.054,0.002,0.08,0.005c5.444,0.706,11.834,8.744,13.032,10.309h7.427c0.035,0,0.07,0.003,0.105,0.009
		c0.439,0.076,0.877,0.198,1.302,0.363c0.183,0.071,0.321,0.224,0.373,0.413c0.052,0.188,0.011,0.39-0.108,0.545
		c-0.379,0.483-0.578,1.061-0.578,1.672c0,1.502,1.223,2.723,2.725,2.723c0.398,0,0.786-0.087,1.152-0.259
		c0.184-0.087,0.4-0.076,0.576,0.026c0.176,0.104,0.289,0.288,0.304,0.491l0.005,0.057c0.005,0.07,0.011,0.142,0.011,0.211v6.461
		C179.519,158.954,178.762,159.711,177.833,159.711L177.833,159.711z M173.873,158.473h3.96c0.247,0,0.448-0.201,0.448-0.447v-5.833
		c-0.266,0.056-0.537,0.084-0.811,0.084c-2.184,0-3.961-1.776-3.961-3.96c0-0.598,0.131-1.175,0.384-1.702
		c-0.098-0.024-0.196-0.044-0.295-0.063h-7.681c-0.196,0-0.381-0.093-0.497-0.25c-0.069-0.093-6.968-9.327-12.349-10.064h-13.762
		c-1.958,0-2.866,0.785-3.438,1.469c-1.387,1.657-5.079,5.774-7.018,7.212c-1.436,1.064-4.748,1.357-5.121,1.387
		c-0.016,0.001-0.033,0.002-0.049,0.002c-0.247,0-0.448,0.201-0.448,0.448v11.27c0,0.246,0.201,0.447,0.448,0.447h3.692
		c-0.029-0.258-0.043-0.518-0.043-0.773c0-3.945,3.209-7.154,7.154-7.154c3.944,0,7.153,3.208,7.153,7.154
		c0,0.256-0.015,0.514-0.044,0.773h18.056c-0.028-0.258-0.043-0.518-0.043-0.773c0-3.945,3.209-7.154,7.153-7.154
		s7.153,3.208,7.153,7.154C173.916,157.955,173.902,158.215,173.873,158.473L173.873,158.473z"/>
	<path fill="#231F20" d="M134.488,161.186c-1.922,0-3.486-1.564-3.486-3.486c0-1.923,1.564-3.486,3.486-3.486
		s3.486,1.563,3.486,3.486C137.974,159.621,136.41,161.186,134.488,161.186L134.488,161.186z M134.488,155.449
		c-1.24,0-2.249,1.009-2.249,2.25c0,1.24,1.009,2.249,2.249,2.249c1.24,0,2.249-1.009,2.249-2.249
		C136.737,156.458,135.728,155.449,134.488,155.449L134.488,155.449z"/>
	<path fill="#231F20" d="M159.294,146.914h-24.707c-1.138,0-1.858-0.336-2.138-1c-0.341-0.809,0.174-1.751,0.77-2.363
		c1.889-1.939,3.681-4.012,4.16-4.585c0.31-0.371,0.741-0.765,1.932-0.765h13.563c0.037,0,0.074,0.003,0.111,0.01
		c2.072,0.38,4.551,2.63,7.176,5.011l0.162,0.146c1.01,0.915,1.379,1.749,1.098,2.477
		C161.162,146.514,160.367,146.914,159.294,146.914L159.294,146.914z M139.311,139.438c-0.714,0-0.839,0.149-0.983,0.321
		c-0.522,0.625-2.298,2.679-4.223,4.655c-0.425,0.437-0.575,0.88-0.516,1.019c0.028,0.068,0.264,0.244,0.998,0.244h24.707
		c0.612,0,0.935-0.181,0.972-0.277c0.031-0.08-0.046-0.455-0.775-1.116l-0.16-0.146c-2.357-2.138-4.793-4.348-6.516-4.7H139.311
		L139.311,139.438z"/>
	<polygon fill="#231F20" points="147.064,159.499 145.828,159.499 145.828,138.82 147.064,138.82 147.064,159.499 	"/>
	<polygon fill="#231F20" points="152.137,150.146 149.292,150.146 149.292,148.909 152.137,148.909 152.137,150.146 	"/>
</g>
</svg>
