<?xml version="1.0" encoding="utf-8"?>
<!-- Generator: Adobe Illustrator 16.0.0, SVG Export Plug-In . SVG Version: 6.00 Build 0)  -->
<!DOCTYPE svg PUBLIC "-//W3C//DTD SVG 1.1//EN" "http://www.w3.org/Graphics/SVG/1.1/DTD/svg11.dtd">
<svg version="1.1" id="Layer_1" xmlns="http://www.w3.org/2000/svg" xmlns:xlink="http://www.w3.org/1999/xlink" x="0px" y="0px"
	 width="300px" height="300px" viewBox="0 0 300 300" enable-background="new 0 0 300 300" xml:space="preserve">
<path fill="none" stroke="#231F20" stroke-width="1.4173" d="M118.052,160.829h19.84l1.12-7.84h-1.12c-0.48,1.76-1.56,4.28-2.4,5.28
	c-1.12,0.8-3.04,1.12-5.12,1.12h-0.96c-1.12,0-2.48-0.16-3.68-0.32V148.67h4.8c1.12,0.799,1.92,2.399,2.24,3.84h0.8v-9.281h-0.8
	c-0.16,1.24-1.12,3.041-2.24,3.681h-4.8v-9.12c0.84-0.16,2.24-0.32,3.2-0.32h0.48c1.92,0,4.8,0.32,5.92,1.121
	c0.64,1.039,1.44,3.119,1.92,4.959h1.12l-0.8-7.84c-0.64,0.16-2.08,0.32-3.2,0.32h-16.32v1.12l2.4,0.479
	c0.96,0.2,1.12,0.32,1.12,0.961v19.68c0,0.64-0.16,0.76-1.12,0.96l-2.4,0.479V160.829L118.052,160.829z M143.172,154.429
	c0,10.801,4.8,16.48,9.92,16.48v-1.12c-3.92,0-6.88-5.28-6.88-15.36v-7.04c0-10.08,2.96-15.359,6.88-15.359v-1.12
	c-5.12,0-9.92,5.681-9.92,16.479V154.429L143.172,154.429z M152.771,151.869h3.68c0.8,6.2,4.24,9.44,10.08,9.44
	c5.279,0,6.56-3.84,7.039-6.561h-1.439c-0.52,3.36-2.24,5.12-5.6,5.12c-3.84,0-5.28-3.16-5.641-8h6.92l0.801-1.6h-7.84v-1.6
	c0-0.761,0.039-1.521,0.079-2.24h8.88l0.801-1.601h-9.48c0.76-4.8,3.04-7.2,6.28-7.2c3.2,0,4.64,2.24,5.28,4.641l1.119-1.92
	c-0.8-2.24-2.72-4.16-6.399-4.16c-5.64,0-9.28,3.68-10.56,8.64h-2.08l-0.801,1.601h2.561c-0.121,0.799-0.16,1.6-0.16,2.399
	c0,0.521,0,1,0.039,1.44h-2.76L152.771,151.869L152.771,151.869z M175.171,169.789v1.12c5.12,0,9.92-5.68,9.92-16.48v-7.04
	c0-10.799-4.8-16.479-9.92-16.479v1.12c3.92,0,6.88,5.279,6.88,15.359v7.04C182.051,164.509,179.091,169.789,175.171,169.789
	L175.171,169.789z"/>
</svg>
