<?xml version="1.0" encoding="utf-8"?>
<!-- Generator: Adobe Illustrator 16.0.0, SVG Export Plug-In . SVG Version: 6.00 Build 0)  -->
<!DOCTYPE svg PUBLIC "-//W3C//DTD SVG 1.1//EN" "http://www.w3.org/Graphics/SVG/1.1/DTD/svg11.dtd">
<svg version="1.1" id="Layer_1" xmlns="http://www.w3.org/2000/svg" xmlns:xlink="http://www.w3.org/1999/xlink" x="0px" y="0px"
	 width="300px" height="300px" viewBox="0 0 300 300" enable-background="new 0 0 300 300" xml:space="preserve">
<path fill="none" stroke="#000000" stroke-width="1.4173" d="M138.561,154.777h4.35c1.15,8.05,6.2,11.8,13.55,11.8
	c6.2,0,8.1-4.5,8.7-8.5h-1.95c-0.65,4.2-2.699,6.4-6.6,6.4c-4.2,0-5.95-3.8-6.45-9.7h7.2l1-2.3h-8.35v-1.7c0-0.85,0-1.7,0.05-2.5
	h9.701l1-2.3h-10.451c0.85-5.75,3.3-8.7,6.9-8.7c4,0,5.801,2.8,6.6,5.8l1.551-3c-1-2.5-3.551-4.899-8.15-4.899
	c-7.35,0-12.3,4.3-13.95,10.8h-2.3l-1,2.3h2.85c-0.1,0.9-0.15,1.8-0.15,2.7c0,0.55,0,1,0.05,1.5h-3.15L138.561,154.777
	L138.561,154.777z"/>
</svg>
