<?xml version="1.0" encoding="utf-8"?>
<!-- Generator: Adobe Illustrator 17.1.0, SVG Export Plug-In . SVG Version: 6.00 Build 0)  -->
<!DOCTYPE svg PUBLIC "-//W3C//DTD SVG 1.1//EN" "http://www.w3.org/Graphics/SVG/1.1/DTD/svg11.dtd">
<svg version="1.1" id="Layer_1" xmlns="http://www.w3.org/2000/svg" xmlns:xlink="http://www.w3.org/1999/xlink" x="0px" y="0px"
	 viewBox="0 0 673 510" enable-background="new 0 0 673 510" xml:space="preserve">
<g>
	<path fill="#5FC9DB" d="M108.2,72.2c2.1-4.8-6.2-5-9.2-3.4c-3,1.7-4.7,2-11.1,3.3c-6.4,1.3-4.6,4.6-1.1,8.2s4.5,4.5,0.8,4.5
		c-3.7,0-9,3.4-10.3,6.3c-1.3,2.9-1.9,3.4-7.8,2.6c-5.9-0.8-10.3-7.3-15.1-2.6c-4.8,4.8,2,12.2-1,13c-3,0.8-0.8,3.7,0.4,5.7
		c0.6,0.9-0.1,2.5-1,3.8c2.9,3.2,6.1,9.2,10.5,9.2c4.6,0,8.9,4.8,13.9,1.5c4.9-3.2,1.3-10.8,4.9-12.4c3.6-1.5,3.6-4.6,3.6-9.5
		c0-4.9,10.1,2.3,14.3-6.3c3.5-7.2,11-4.1,15.5-7.7C115.8,81.1,106.3,76.6,108.2,72.2L108.2,72.2z"/>
	<path fill="#5FC9DB" d="M569,492.5c-3.5-3.5-4.9-14.1-4.9-18.8c0-4.8,0-16.8-3.7-17.3c-3.7-0.5-2.6-2.6-2.6-11.1
		c0-8.6-4-15.5,0.1-23.2c4.1-7.7-8-4.6-3.7-11.7c4.3-7.1-8.3-10.1-7.6-13.6c0.7-3.5,5.1-5.1,8.8-8.8c3.7-3.7-2.4-12-0.5-16.4
		c1.9-4.4,3.9-7.4-0.4-10.6c-4.3-3.1-7.3-2.6-10.3,0.4c-2.9,2.9-6.2,4.3-11.1-0.6c-4.9-4.9-10.2-4-10.2-7.8
		c0-3.8,6.4-10.9,17.3-11.8c10.9-0.9,1.9-7,11-7s4.6-5.8,6.7-7.9c2.1-2.1,4.2,0.9,7.2-0.5c3-1.3,2,1,8.5,1s3.2-6.9,10.8-11.4
		c7.6-4.5,7,4.2,14.8,6.6c7.8,2.4,5.8-3.7,15.1-3.7c9.3,0,6.8-7.7,4.6-9.9c-2.2-2.2-0.8-7.5-1.3-13.2c-0.6-5.7,5.7-5.7,5.7-8
		c0-2.3-5.4-5.4-2.7-6.8c2.8-1.3,2.2-3.9,5.3-10.5s1.7-10.9-1.7-7.5c-3.4,3.4-12.9-3-8.3-5.9c4.7-2.9,0.4-5.5,3.7-11.7
		c3.3-6.2,2.8-20.5-3.5-17.3c-6.3,3.2-8.2-1.2-4-7.3c4.2-6.1,7.6-12.1,4.5-15.2s-2.6-2.6-16.1,3c-13.5,5.6-3.1-1-11.7-2.4
		c-8.6-1.3-7.5,5-10.1,2.4c-2.6-2.6,5.3-9.5,2.9-11.9c-2.4-2.4-7.5-0.3-12.1-1.5c-4.6-1.2-6.8-4.7-18.1-3.2
		c-11.3,1.4-14,10.8-16.1,10.8c-2.1,0-0.5-3.3,1-8.9c1.5-5.6-1.5-4.7-6.5-4.7c-4.9,0-4.6,0-6.2-4.9c-1.6-4.9-3.7-8-8.7-7.4
		c-4.9,0.6-5.1-1.1-5.6-6.6c-0.5-5.4-1-8-6.9-8s-8.9-0.5-8.4-4.5s-0.3-7.8-3-11.9c-2.8-4.1-8.8-2.4-9.4,1c-0.7,3.3-4.4,4-5.9,6.8
		c-1.5,2.8-3.1,3.4-3.1,3.4c-9,2.6-15.9-4.8-14-10c1.9-5.2,1.8-17.6,1.8-21.8s4.9-3.3,4.9-6c0-2.7-4.1-2.2-9.3-2.2
		c-5.2,0-6.4,6.2-9.4,5.3c-3-0.9-3.5,1.1-6.1,2.6c-2.6,1.4-5.5,0.7-9.5,0.7c-4,0,1.4,3.3-12.2,4.9c-13.6,1.5-24.7-11-24.7-15.2
		c0-4.2,2.2-11.9-2-14.9c-4.2-3-11.5-3.9-14.1-1.3c-2.6,2.6-6.2,2.2-8,0.5c-1.8-1.8-4.9-0.6-11.7-0.6s-6.1-10.7-9-13.6
		c-2.9-2.9-5.5,2.3-8.3,2.9c-2.8,0.7-5.7-3.1-7.3-3.8s-6.9,1.9-13.2,8.2c-6.3,6.3-7.7,12.5-8.4,15.9c-0.7,3.5-4.6,4.6-6.4,0.4
		c-1.8-4.2-6.4-3.9-10.2-1.7c-3.8,2.2-7.9-1.3-12.6-2.4c-4.7-1-2.6-12-5.2-13.5c-2.7-1.5-10-0.5-19.7-0.5
		c-9.7,0-14.6,10.9-23.1,12.2c-8.5,1.2-2.3,5.9-6.2,5.9s-6.5,2.2-7.6,5.8c-1.1,3.6-9.8-0.2-11.9-3.7c-2.1-3.5,0.9-16.9-12.4-15.1
		c-16.9,2.3-19.4-10.8-23.7-6.5c-3.1,3.1-9.9,8.1-13.4,10.7c0.1,0.1,0.1,0.2,0.2,0.3c4.7,6.6,5.8,8,4.9,10.7
		c-0.9,2.7,3.6,8.6,10.8,8.6c7.2,0,12.6,11.9,8.8,15.7c-3.8,3.8-5.8,9-2.9,18.1c2.9,9.1,9.5,16.4,9.5,25.5s-1.9,28.3,3.4,32.3
		c5.3,4.1,21.9,11.8,24.4,15.7c2.4,3.9,8.6,7.1,12,2.7c3.4-4.4,15-0.1,18.1-7.5c3.2-7.4,6.2-12.6,14.7-8.1
		c8.5,4.4-5.7,15.7-0.3,19.1c5.5,3.4,15.5-6.3,22.2-1.9c6.7,4.4,10.2,2.6,12.2,0.6c2-2,7.9,14.5,12.2,16.2
		c4.3,1.8,13.3,17,10.7,31.1c-2.7,14.1-6.5,16.7-1.9,25c4.6,8.2,8.5,21.9,14.5,20.2c6-1.8,6.8-7.6,8.2-14.6c1.4-7,8.8-3.2,11.9-8.2
		c3.2-5.1,12.8,7.4,19,1.1c6.2-6.2,20,23.1,35.5,7.6c15.5-15.5,9,5.3,25.7-7.5c0,0,3.6-3.2,7.7,3.7c4.2,6.8,10.8,18.3,14.7,16
		c3.9-2.3,10.3,6.1,11.4,15.1c1.1,9,2.7,14.2,10.1,12.6s6.1-4.1,2-9.4c-4.1-5.3,4.6-5.2,5.6-1.8c1,3.4,4.4,2,9.8,7.4
		c8.8,8.8-10.5,14.5-10.5,19.3c0,4.8-8.6,2.4-8.6,7.2c0,4.8,4.6,9.5,1.5,14.6c-3,5.1-0.1,9.6-4.9,14.5s-4.1,15,1.7,15
		s9-7.1,15.7-3.6c6.7,3.6-2.1,17.3,6.3,23c15,10-5.6,12.9-7.7,18.5c0,0-7.9-1-11.4,4.6c-3.6,5.6-6.8,17-1.5,19.8
		c5.3,2.8-3.3,9,1,13.3c4.3,4.3,10.5,1,12.9,8.5c2.4,7.5,14.1,3,18.1,0.1c4.1-2.9,10.7,1,14.5-2.8c3.8-3.8,9.5,8.2,21.9,6.6
		c9.6-1.3,14,4.7,22.3,6.3C578.2,501.4,572.4,495.9,569,492.5L569,492.5z"/>
	
		<path fill="none" stroke="#E7E7E7" stroke-width="4.252" stroke-linecap="round" stroke-linejoin="round" stroke-miterlimit="10" d="
		M142.2,174.1c5-11,7-22,1-25.9s-4-8-5-20.5s11.5-31.9,11.5-31.9s119.4-83,139.9-94.4 M0.4,103.7c0,0,24.6,10.5,37,23
		c12.5,12.5,20.5,5.5,44.4,28.4s24.4,2.5,47.9,11.5c0,0,2.5,10.5,29.9,7.5c27.4-3,63.9-10,91.8-24.9c27.9-15,55.4,2,77.3-2
		c22-4,22-14,53.4-11.5c31.4,2.5-6-17.5,69.4,0.5c0,0,25.9,1,37.4-19.5c0,0-2-8,13.5-7l13.2,1.1 M157.7,3.4c0,0,3,14,0,28.9
		c-3,15,16,44.9,31.9,55.9s5.5,41,7,50.9s11,26.4,11,26.4 M240.3,154.5c0,0-1.4,13.1,11.2,22c12.5,9,9.5,19.5,33,28.4
		c23.5,9,29.4,13.5,33.4,16.5c4,3,23.9,17,24.9,15.5c1-1.5,6,13.5,6,13.5 M94.8,261.2c0,0-8-21.3,8.5-35.7s32.8-53.2,32.8-53.2
		 M224.1,326.2c0,0,18.9-20,36.1-18.5s29.7,8.5,39.2-18c9.5-26.4,9-39.4,34.4-39.4s61.4,4.5,66.9,0c5.5-4.5,0.5-18,18-19
		s23.5,8,38.4,0c15-8,44.4-8.6,57.4-0.1c13,8.6,89.8,11.6,103.8,5.1c14-6.5,54.4-7.5,54.4-7.5 M490,225.2c0,0,3.5-13.8,9-17.8
		c5.5-4,21-11,26.4-18.5s3-34.5,3-34.5s6.5-18.4-5-27.4c-11.5-9-7-20.5-7-20.5s6.5-8.5,9-22.2 M530.3,142.1H548
		c11-3.5,15.3-25.4,15.3-25.4 M525.4,189c0,0,18.8-1.5,21.4,6.5c2.6,8,15.1,22,16.5,31.4c1.5,9.5,8.5,17,9,29.4
		c0.5,12.5-6,28.4-6,28.4 M530.3,236.9c0,0-4.3,14.5,5.2,20.5c9.5,6,4.3,19.5,11.4,24.9c7.1,5.5,42.5,8,45,0c2.5-8-4-8.9-2.5-20.2
		c1.5-11.2,6-22.4,6-22.4 M416.2,275.7c0,0-17.5-3.7-16.5-14.5c1-10.8,1-10.8,1-10.8 M74.9,32.4c0,0,16.5,9.5,23,17.5
		s35.9,18.5,55.4,9c19.5-9.5,36.2,9.9,36.2,9.9 M148.7,174.1c0,0,1.5,15.4,16,28.4c14.5,13,0.7,30.5,17.8,41
		c17.1,10.5,19.4,3.1,43.2,19.1l21.8,13.2c0,0,15.4,13.1,12.7,19.1c-2.7,6,0,13,0,13"/>
	<path fill="#045A65" d="M549.9,84.3c3.9,0,7.1-3.2,7.1-7.1s-3.2-7.1-7.1-7.1s-7.1,3.2-7.1,7.1S546,84.3,549.9,84.3L549.9,84.3z"/>
	<text transform="matrix(1 0 0 1 489.076 65.667)" fill="#045A65" font-family="'MyriadPro-Regular'" font-size="14">BRUSSELS</text>
	<path fill="#FFFFFF" d="M549.9,80c1.6,0,2.8-1.3,2.8-2.8c0-1.6-1.3-2.8-2.8-2.8c-1.6,0-2.8,1.3-2.8,2.8
		C547.1,78.8,548.3,80,549.9,80L549.9,80z"/>
	<text transform="matrix(1 0 0 1 102.26 145.6435)" fill="#045A65" font-family="'MyriadPro-Regular'" font-size="14">LILLE</text>
	<path fill="#045A65" d="M133.7,161.8c3.1,0,5.7-2.5,5.7-5.7s-2.5-5.7-5.7-5.7c-3.1,0-5.7,2.5-5.7,5.7S130.6,161.8,133.7,161.8
		L133.7,161.8z"/>
	<text transform="matrix(1 0 0 1 499.8156 252.8623)" fill="#045A65" font-family="'MyriadPro-Regular'" font-size="12">CHARLEROI</text>
	<path fill="#045A65" d="M557.6,268.5c3.1,0,5.7-2.5,5.7-5.7c0-3.1-2.5-5.7-5.7-5.7s-5.7,2.5-5.7,5.7
		C551.9,266,554.4,268.5,557.6,268.5L557.6,268.5z"/>
	<text transform="matrix(1 0 0 1 384.0345 244.6279)" fill="#045A65" font-family="'MyriadPro-Regular'" font-size="12">MONS</text>
	<path fill="#045A65" d="M415.8,260.3c3.1,0,5.7-2.5,5.7-5.7c0-3.1-2.5-5.7-5.7-5.7s-5.7,2.5-5.7,5.7
		C410.1,257.8,412.6,260.3,415.8,260.3L415.8,260.3z"/>
	<text transform="matrix(1 0 0 1 204.8225 164.6591)" fill="#045A65" font-family="'MyriadPro-Regular'" font-size="12">T</text>
	<text transform="matrix(1 0 0 1 193.1473 164.6591)" fill="#045A65" font-family="'MyriadPro-Regular'" font-size="12">OURNAI</text>
	<path fill="#045A65" d="M230.9,180.3c3.1,0,5.7-2.5,5.7-5.7s-2.5-5.7-5.7-5.7s-5.7,2.5-5.7,5.7S227.8,180.3,230.9,180.3
		L230.9,180.3z"/>
	<path fill="#E7E7E7" d="M324.8,158.1c6.5,0,11.7-5.3,11.7-11.7c0-6.5-5.3-11.7-11.7-11.7c-6.5,0-11.7,5.3-11.7,11.7
		C313.1,152.9,318.3,158.1,324.8,158.1L324.8,158.1z"/>
	<path fill="#FFFFFF" d="M325.3,144l-0.2-4.5h0.8l1.7,4.5H325.3L325.3,144z M322,144l1.7-4.5h0.8l-0.2,4.5H322L322,144z M319,145.9
		v-0.8h-1.6v-0.5h14.7v0.5h-1.6v0.8h-1.4v-0.8h-8.8v0.8H319L319,145.9z M325.6,153.3l-0.3-7.4h2.9l2.7,7.4H325.6L325.6,153.3z
		 M318.6,153.3l2.7-7.4h2.9l-0.3,7.4H318.6L318.6,153.3z"/>
	<path fill="#E7E7E7" d="M316.3,230.1c6.5,0,11.7-5.3,11.7-11.7c0-6.5-5.3-11.7-11.7-11.7c-6.5,0-11.7,5.3-11.7,11.7
		C304.5,224.9,309.8,230.1,316.3,230.1L316.3,230.1z"/>
	<path fill="#FFFFFF" d="M316.7,216l-0.2-4.5h0.8l1.7,4.5H316.7L316.7,216z M313.5,216l1.7-4.5h0.8l-0.2,4.5H313.5L313.5,216z
		 M310.5,217.9v-0.8h-1.6v-0.5h14.7v0.5h-1.6v0.8h-1.4v-0.8h-8.8v0.8H310.5L310.5,217.9z M317.1,225.3l-0.3-7.4h2.9l2.7,7.4H317.1
		L317.1,225.3z M310,225.3l2.7-7.4h2.9l-0.3,7.4H310L310,225.3z"/>
	<path fill="#E7E7E7" d="M470.8,238.7c6.5,0,11.7-5.3,11.7-11.7c0-6.5-5.3-11.7-11.7-11.7s-11.7,5.3-11.7,11.7
		C459.1,233.5,464.3,238.7,470.8,238.7L470.8,238.7z"/>
	<path fill="#FFFFFF" d="M471.3,224.6l-0.2-4.5h0.8l1.7,4.5H471.3L471.3,224.6z M468,224.6l1.7-4.5h0.8l-0.2,4.5H468L468,224.6z
		 M465,226.4v-0.8h-1.6v-0.5h14.7v0.5h-1.6v0.8h-1.4v-0.8h-8.8v0.8H465L465,226.4z M471.6,233.9l-0.3-7.4h2.9l2.7,7.4H471.6
		L471.6,233.9z M464.6,233.9l2.7-7.4h2.9l-0.3,7.4H464.6L464.6,233.9z"/>
	<path fill="#E7E7E7" d="M528.5,174.5c6.5,0,11.7-5.3,11.7-11.7c0-6.5-5.3-11.7-11.7-11.7c-6.5,0-11.7,5.3-11.7,11.7
		C516.8,169.2,522.1,174.5,528.5,174.5L528.5,174.5z"/>
	<path fill="#FFFFFF" d="M529,160.4l-0.2-4.5h0.8l1.7,4.5H529L529,160.4z M525.7,160.4l1.7-4.5h0.8l-0.2,4.5H525.7L525.7,160.4z
		 M522.7,162.2v-0.8h-1.6v-0.5h14.7v0.5h-1.6v0.8h-1.4v-0.8h-8.8v0.8H522.7L522.7,162.2z M529.4,169.6l-0.3-7.4h2.9l2.7,7.4H529.4
		L529.4,169.6z M522.3,169.6l2.7-7.4h2.9l-0.3,7.4H522.3L522.3,169.6z"/>
	<path fill="#E7E7E7" d="M301.3,297.2c6.5,0,11.7-5.3,11.7-11.7c0-6.5-5.3-11.7-11.7-11.7c-6.5,0-11.7,5.3-11.7,11.7
		C289.6,292,294.9,297.2,301.3,297.2L301.3,297.2z"/>
	<path fill="#FFFFFF" d="M301.8,283.1l-0.2-4.5h0.9l1.7,4.5H301.8L301.8,283.1z M298.5,283.1l1.7-4.5h0.9l-0.2,4.5H298.5
		L298.5,283.1z M295.5,285v-0.8H294v-0.5h14.7v0.5h-1.6v0.8h-1.4v-0.8H297v0.8H295.5L295.5,285z M302.2,292.4l-0.3-7.4h2.9l2.7,7.4
		H302.2L302.2,292.4z M295.1,292.4l2.7-7.4h2.9l-0.3,7.4H295.1L295.1,292.4z"/>
	<text transform="matrix(1 0 0 1 282.5247 309.2216)" fill="#939598" font-family="'MyriadPro-Regular'" font-size="12">E19</text>
	<text transform="matrix(1 0 0 1 534.759 167.5029)" fill="#939598" font-family="'MyriadPro-Regular'" font-size="12">E19</text>
	<text transform="matrix(1 0 0 1 452.22 249.8623)" fill="#FFFFFF" font-family="'MyriadPro-Regular'" font-size="12">E42</text>
	<path fill="#E7E7E7" d="M649.1,244.5c6.5,0,11.7-5.3,11.7-11.7s-5.3-11.7-11.7-11.7c-6.5,0-11.7,5.3-11.7,11.7
		S642.6,244.5,649.1,244.5L649.1,244.5z"/>
	<path fill="#FFFFFF" d="M649.6,230.4l-0.2-4.5h0.8l1.7,4.5H649.6L649.6,230.4z M646.3,230.4l1.7-4.5h0.8l-0.2,4.5H646.3
		L646.3,230.4z M643.3,232.2v-0.8h-1.6v-0.5h14.7v0.5h-1.6v0.8h-1.4v-0.8h-8.8v0.8H643.3L643.3,232.2z M650,239.6l-0.3-7.4h2.9
		l2.7,7.4H650L650,239.6z M642.9,239.6l2.7-7.4h2.9l-0.3,7.4H642.9L642.9,239.6z"/>
	<text transform="matrix(1 0 0 1 630.306 256.4795)" fill="#939598" font-family="'MyriadPro-Regular'" font-size="12">E42</text>
	<text transform="matrix(1 0 0 1 299.5252 169.8388)" fill="#FFFFFF" font-family="'MyriadPro-Regular'" font-size="12">E429</text>
	<text transform="matrix(1 0 0 1 297.134 241.1201)" fill="#FFFFFF" font-family="'MyriadPro-Regular'" font-size="12">E42</text>
	<path fill="#E7E7E7" d="M226.2,55.7c6.5,0,11.7-5.3,11.7-11.7c0-6.5-5.3-11.7-11.7-11.7s-11.7,5.3-11.7,11.7
		C214.4,50.4,219.7,55.7,226.2,55.7L226.2,55.7z"/>
	<path fill="#FFFFFF" d="M226.6,41.6l-0.2-4.5h0.9l1.7,4.5H226.6L226.6,41.6z M223.4,41.6l1.7-4.5h0.9l-0.2,4.5H223.4L223.4,41.6z
		 M220.4,43.4v-0.8h-1.6v-0.5h14.7v0.5H232v0.8h-1.4v-0.8h-8.8v0.8H220.4L220.4,43.4z M227,50.9l-0.3-7.4h2.9l2.7,7.4H227L227,50.9z
		 M219.9,50.9l2.7-7.4h2.9l-0.3,7.4H219.9L219.9,50.9z"/>
	<text transform="matrix(1 0 0 1 207.3372 67.6904)" fill="#939598" font-family="'MyriadPro-Regular'" font-size="12">E17</text>
	<path fill="#E7E7E7" d="M197.5,127.7c6.5,0,11.7-5.3,11.7-11.7c0-6.5-5.3-11.7-11.7-11.7c-6.5,0-11.7,5.3-11.7,11.7
		C185.8,122.4,191,127.7,197.5,127.7L197.5,127.7z"/>
	<path fill="#FFFFFF" d="M198,113.6l-0.2-4.5h0.9l1.7,4.5H198L198,113.6z M194.7,113.6l1.7-4.5h0.9l-0.2,4.5H194.7L194.7,113.6z
		 M191.7,115.4v-0.8h-1.6v-0.5h14.7v0.5h-1.6v0.8h-1.4v-0.8h-8.8v0.8H191.7L191.7,115.4z M198.4,122.8l-0.3-7.4h2.9l2.7,7.4H198.4
		L198.4,122.8z M191.3,122.8l2.7-7.4h2.9l-0.3,7.4H191.3L191.3,122.8z"/>
	<text transform="matrix(1 0 0 1 171.9314 138.6436)" fill="#FFFFFF" font-family="'MyriadPro-Regular'" font-size="12">E403</text>
	<path fill="#E7E7E7" d="M59.8,153.4c6.5,0,11.7-5.3,11.7-11.7c0-6.5-5.3-11.7-11.7-11.7s-11.7,5.3-11.7,11.7
		C48.1,148.1,53.3,153.4,59.8,153.4L59.8,153.4z"/>
	<path fill="#FFFFFF" d="M60.3,139.2l-0.2-4.5H61l1.7,4.5H60.3L60.3,139.2z M57,139.2l1.7-4.5h0.9l-0.2,4.5H57L57,139.2z M54,141.1
		v-0.8h-1.6v-0.5h14.7v0.5h-1.6v0.8h-1.4v-0.8h-8.8v0.8H54L54,141.1z M60.7,148.5l-0.3-7.4h2.9l2.7,7.4H60.7L60.7,148.5z
		 M53.6,148.5l2.7-7.4h2.9l-0.3,7.4H53.6L53.6,148.5z"/>
	<text transform="matrix(1 0 0 1 41.0012 165.3623)" fill="#939598" font-family="'MyriadPro-Regular'" font-size="12">E42</text>
	<text transform="matrix(1 0 0 1 221.6214 301.0107)" fill="#045A65" font-family="'MyriadPro-Regular'" font-size="12">M</text>
	<text transform="matrix(1 0 0 1 226.8382 301.0107)" fill="#045A65" font-family="'MyriadPro-Regular'" font-size="12">ARL</text>
	<text transform="matrix(1 0 0 1 253.5897 301.0107)" fill="#045A65" font-family="'MyriadPro-Regular'" font-size="12">Y</text>
	<path fill="#045A65" d="M275.5,303.2c3.1,0,5.7-2.5,5.7-5.7s-2.5-5.7-5.7-5.7c-3.1,0-5.7,2.5-5.7,5.7
		C269.9,300.6,272.4,303.2,275.5,303.2L275.5,303.2z"/>
	<text transform="matrix(1 0 0 1 361.0491 152.0498)" fill="#045A65" font-family="'MyriadPro-Regular'" font-size="12">AT</text>
	<text transform="matrix(1 0 0 1 376.1736 152.0498)" fill="#045A65" font-family="'MyriadPro-Regular'" font-size="12">H</text>
	<path fill="#045A65" d="M377.8,167.7c3.1,0,5.7-2.5,5.7-5.7s-2.5-5.7-5.7-5.7s-5.7,2.5-5.7,5.7S374.7,167.7,377.8,167.7
		L377.8,167.7z"/>
	<g>
		<path fill="#BFD735" d="M280.9,177c-8.3,0-15,6.7-15,15c0,2.1,0.4,4.1,1.2,5.9c0,0.1,0,0.1,0.1,0.2l12.5,26.4
			c0.2,0.5,0.7,0.8,1.2,0.8c0.5,0,1-0.3,1.2-0.8l12.5-26.4c0,0,0-0.1,0-0.1c0.8-1.8,1.3-3.9,1.3-6C295.9,183.8,289.2,177,280.9,177z
			"/>
		<g>
			<path fill="#FFFFFF" d="M270.9,191.8c0-5.5,4.5-10,10-10s10,4.5,10,10s-4.5,10-10,10S270.9,197.3,270.9,191.8 M268.9,191.8
				c0,6.6,5.4,12,12,12c6.6,0,12-5.4,12-12c0-6.6-5.4-12-12-12C274.3,179.8,268.9,185.1,268.9,191.8L268.9,191.8z"/>
		</g>
		<text transform="matrix(1 0 0 1 274.2762 195.2998)" fill="#FFFFFF" font-family="'MyriadPro-Bold'" font-size="12">1</text>
	</g>
	<g>
		<path fill="#BFD735" d="M472.8,286.6c-8.3,0-15,6.7-15,15c0,2.1,0.4,4.1,1.2,5.9c0,0.1,0,0.1,0.1,0.2l12.5,26.4
			c0.2,0.5,0.7,0.8,1.2,0.8c0.5,0,1-0.3,1.2-0.8l12.5-26.4c0,0,0-0.1,0-0.1c0.8-1.8,1.3-3.9,1.3-6
			C487.8,293.3,481.1,286.6,472.8,286.6z"/>
		<g>
			<path fill="#FFFFFF" d="M462.8,301.3c0-5.5,4.5-10,10-10s10,4.5,10,10s-4.5,10-10,10S462.8,306.8,462.8,301.3 M460.8,301.3
				c0,6.6,5.4,12,12,12s12-5.4,12-12c0-6.6-5.4-12-12-12S460.8,294.7,460.8,301.3L460.8,301.3z"/>
		</g>
		<text transform="matrix(1 0 0 1 466.1325 304.8447)" fill="#FFFFFF" font-family="'MyriadPro-Bold'" font-size="12">2</text>
	</g>
	<g>
		<path fill="#BFD735" d="M362.8,247.3c-8.3,0-15,6.7-15,15c0,2.1,0.4,4.1,1.2,5.9c0,0.1,0,0.1,0.1,0.2l12.5,26.4
			c0.2,0.5,0.7,0.8,1.2,0.8c0.5,0,1-0.3,1.2-0.8l12.5-26.4c0,0,0-0.1,0-0.1c0.8-1.8,1.3-3.9,1.3-6
			C377.8,254,371.1,247.3,362.8,247.3z"/>
		<g>
			<path fill="#FFFFFF" d="M352.8,262c0-5.5,4.5-10,10-10s10,4.5,10,10s-4.5,10-10,10S352.8,267.5,352.8,262 M350.8,262
				c0,6.6,5.4,12,12,12s12-5.4,12-12c0-6.6-5.4-12-12-12S350.8,255.3,350.8,262L350.8,262z"/>
		</g>
		<text transform="matrix(1 0 0 1 356.1541 265.5107)" fill="#FFFFFF" font-family="'MyriadPro-Bold'" font-size="12">3</text>
	</g>
	<g>
		<path fill="#BFD735" d="M176.9,59.6c-8.3,0-15,6.7-15,15c0,2.1,0.4,4.1,1.2,5.9c0,0.1,0,0.1,0.1,0.2l12.5,26.4
			c0.2,0.5,0.7,0.8,1.2,0.8c0.5,0,1-0.3,1.2-0.8l12.5-26.4c0,0,0-0.1,0-0.1c0.8-1.8,1.3-3.9,1.3-6C191.9,66.3,185.2,59.6,176.9,59.6
			z"/>
		<g>
			<path fill="#FFFFFF" d="M166.9,74.3c0-5.5,4.5-10,10-10s10,4.5,10,10s-4.5,10-10,10S166.9,79.8,166.9,74.3 M164.9,74.3
				c0,6.6,5.4,12,12,12s12-5.4,12-12c0-6.6-5.4-12-12-12S164.9,67.7,164.9,74.3L164.9,74.3z"/>
		</g>
		<text transform="matrix(1 0 0 1 170.2684 77.8213)" fill="#FFFFFF" font-family="'MyriadPro-Bold'" font-size="12">4</text>
	</g>
	<g>
		<path fill="#BFD735" d="M292.9,113.1c-8.3,0-15,6.7-15,15c0,2.1,0.4,4.1,1.2,5.9c0,0.1,0,0.1,0.1,0.2l12.5,26.4
			c0.2,0.5,0.7,0.8,1.2,0.8c0.5,0,1-0.3,1.2-0.8l12.5-26.4c0,0,0-0.1,0-0.1c0.8-1.8,1.3-3.9,1.3-6
			C307.9,119.9,301.2,113.1,292.9,113.1z"/>
		<g>
			<path fill="#FFFFFF" d="M282.9,127.9c0-5.5,4.5-10,10-10s10,4.5,10,10s-4.5,10-10,10S282.9,133.4,282.9,127.9 M280.9,127.9
				c0,6.6,5.4,12,12,12s12-5.4,12-12c0-6.6-5.4-12-12-12S280.9,121.2,280.9,127.9L280.9,127.9z"/>
		</g>
		<text transform="matrix(1 0 0 1 286.2772 131.3975)" fill="#FFFFFF" font-family="'MyriadPro-Bold'" font-size="12">5</text>
	</g>
	<g>
		<path fill="#BFD735" d="M446,80.7c-8.3,0-15,6.7-15,15c0,2.1,0.4,4.1,1.2,5.9c0,0.1,0,0.1,0.1,0.2l12.5,26.4
			c0.2,0.5,0.7,0.8,1.2,0.8c0.5,0,1-0.3,1.2-0.8l12.5-26.4c0,0,0-0.1,0-0.1c0.8-1.8,1.3-3.9,1.3-6C461,87.4,454.3,80.7,446,80.7z"/>
		<g>
			<path fill="#FFFFFF" d="M436,95.4c0-5.5,4.5-10,10-10c5.5,0,10,4.5,10,10s-4.5,10-10,10S436,100.9,436,95.4 M434,95.4
				c0,6.6,5.4,12,12,12s12-5.4,12-12c0-6.6-5.4-12-12-12S434,88.7,434,95.4L434,95.4z"/>
		</g>
		<text transform="matrix(1 0 0 1 439.3708 98.9053)" fill="#FFFFFF" font-family="'MyriadPro-Bold'" font-size="12">6</text>
	</g>
</g>
</svg>
