<?xml version="1.0" encoding="utf-8"?>
<!-- Generator: Adobe Illustrator 16.0.0, SVG Export Plug-In . SVG Version: 6.00 Build 0)  -->
<!DOCTYPE svg PUBLIC "-//W3C//DTD SVG 1.1//EN" "http://www.w3.org/Graphics/SVG/1.1/DTD/svg11.dtd">
<svg version="1.1" id="Layer_1" xmlns="http://www.w3.org/2000/svg" xmlns:xlink="http://www.w3.org/1999/xlink" x="0px" y="0px"
	 width="300px" height="300px" viewBox="0 0 300 300" enable-background="new 0 0 300 300" xml:space="preserve">
<path fill="none" stroke="#000000" stroke-width="1.4173" stroke-miterlimit="10" d="M170.215,142.684l-3.284,0.036
	c-0.181,0.002-0.36-0.042-0.519-0.129l-13.944-7.607c-0.408-0.222-0.914-0.152-1.246,0.173l-7.47,7.323
	c-0.425,0.415-0.422,1.096,0.004,1.508l1.934,1.872c0.411,0.398,1.064,0.397,1.475-0.002l2.962-2.887
	c0.405-0.396,1.054-0.4,1.466-0.009l13.22,12.572c0.192,0.184,0.446,0.287,0.711,0.291l4.644,0.078
	c0.588,0.011,1.07-0.462,1.073-1.05l0.043-11.112C171.284,143.153,170.804,142.677,170.215,142.684L170.215,142.684z"/>
<path fill="none" stroke="#000000" stroke-width="1.4173" stroke-miterlimit="10" d="M150.644,143.531
	c-0.014,0.009-0.027,0.02-0.041,0.032l-2.931,2.861c-0.276,0.269-0.621,0.464-1.001,0.527c-0.591,0.098-1.168-0.086-1.585-0.49
	l-1.892-1.833c-0.358-0.348-0.59-0.817-0.601-1.317c-0.01-0.509,0.185-0.987,0.547-1.343l2.938-2.884
	c0.009-0.008,0.009-0.02,0-0.028c-0.296-0.29-0.551-0.539-0.757-0.741c-0.355-0.348-0.905-0.401-1.321-0.127l-6.592,4.345
	c-0.176,0.116-0.382,0.178-0.593,0.178h-4.061c-0.596,0-1.077,0.481-1.077,1.075v11.487c0,0.553,0.42,1.017,0.971,1.07l4.426,0.434
	c0.242,0.024,0.47,0.129,0.644,0.298l0.425,0.41c0.006,0.006,0.014,0.007,0.021,0.004c0.409-0.2,0.892-0.25,1.364-0.103
	c0.278,0.087,0.527,0.248,0.737,0.45l5.545,5.342c0.368,0.354,0.572,0.852,0.559,1.363c-0.006,0.252-0.064,0.497-0.169,0.722
	c-0.004,0.007-0.002,0.015,0.004,0.021l0.507,0.49c0.316,0.308,1.326,0.313,1.748,0.183c4.164-1.285,11.229-4.834,15.19-7.16
	c0.666-0.392,0.957-1.92,0.41-2.466C161.597,153.87,155.277,148.078,150.644,143.531L150.644,143.531z"/>
<path fill="none" stroke="#000000" stroke-width="1.4173" stroke-miterlimit="10" d="M139.707,158.501
	c-0.432-0.416-1.125-0.381-1.513,0.077l-0.021,0.025c-0.354,0.419-0.32,1.039,0.076,1.417l5.483,5.239
	c0.387,0.37,0.993,0.384,1.397,0.032l0,0c0.459-0.399,0.477-1.105,0.039-1.527L139.707,158.501L139.707,158.501z"/>
<path fill="none" stroke="#000000" stroke-width="1.4173" stroke-miterlimit="10" d="M129.807,141.77h-1.588
	c-0.438,0-0.794,0.372-0.794,0.832v14.245c0,0.459,0.355,0.832,0.794,0.832h1.588c0.438,0,0.794-0.373,0.794-0.832v-14.245
	C130.601,142.142,130.244,141.77,129.807,141.77L129.807,141.77z"/>
<path fill="none" stroke="#000000" stroke-width="1.4173" stroke-miterlimit="10" d="M174.701,141.44h-1.588
	c-0.438,0-0.794,0.373-0.794,0.832v14.245c0,0.459,0.356,0.832,0.794,0.832h1.588c0.438,0,0.794-0.373,0.794-0.832v-14.245
	C175.495,141.813,175.14,141.44,174.701,141.44L174.701,141.44z"/>
</svg>
