<?xml version="1.0" encoding="utf-8"?>
<!-- Generator: Adobe Illustrator 16.0.0, SVG Export Plug-In . SVG Version: 6.00 Build 0)  -->
<!DOCTYPE svg PUBLIC "-//W3C//DTD SVG 1.1//EN" "http://www.w3.org/Graphics/SVG/1.1/DTD/svg11.dtd">
<svg version="1.1" id="Layer_1" xmlns="http://www.w3.org/2000/svg" xmlns:xlink="http://www.w3.org/1999/xlink" x="0px" y="0px"
	 width="300px" height="300px" viewBox="0 0 300 300" enable-background="new 0 0 300 300" xml:space="preserve">
<path fill="none" stroke="#000000" stroke-width="1.44" stroke-linecap="round" stroke-linejoin="round" stroke-miterlimit="22.9256" d="
	M142.757,167.428v-23.551 M147.85,167.428v-23.551 M147.568,167.428l-4.712-0.006l4.994-4.683l-4.994-4.683l4.994-4.684
	l-4.994-4.683l4.994-4.683 M134.72,143.802l6.351-1.664 M150.532,139.66l18.198-4.767 M163.484,136.267v6.852 M143.076,137.768
	h5.265c0.821,0,1.494,0.672,1.494,1.494v3.121c0,0.822-0.673,1.494-1.494,1.494h-5.265c-0.822,0-1.494-0.672-1.494-1.494v-3.121
	C141.582,138.439,142.254,137.768,143.076,137.768L143.076,137.768L143.076,137.768z M159.622,149.012l4.002-6.33l4.002,6.33
	 M158.239,149.815h10.491v5.392h-10.491V149.815L158.239,149.815z M143.579,137.052l1.795-2.839l1.795,2.839"/>
</svg>
