<?xml version="1.0" encoding="utf-8"?>
<!-- Generator: Adobe Illustrator 16.0.0, SVG Export Plug-In . SVG Version: 6.00 Build 0)  -->
<!DOCTYPE svg PUBLIC "-//W3C//DTD SVG 1.1//EN" "http://www.w3.org/Graphics/SVG/1.1/DTD/svg11.dtd">
<svg version="1.1" id="Layer_1" xmlns="http://www.w3.org/2000/svg" xmlns:xlink="http://www.w3.org/1999/xlink" x="0px" y="0px"
	 width="300px" height="300px" viewBox="0 0 300 300" enable-background="new 0 0 300 300" xml:space="preserve">
<path fill="none" stroke="#000000" stroke-width="1.4173" stroke-miterlimit="10" d="M151.307,133.708
	c-5.827,0-10.569,4.741-10.569,10.568c0,1.476,0.305,2.881,0.853,4.158c0.014,0.046,0.024,0.093,0.045,0.137l8.798,18.603
	c0.158,0.335,0.496,0.55,0.869,0.55c0.37,0,0.709-0.215,0.868-0.55l8.798-18.603c0.008-0.018,0.01-0.037,0.018-0.056
	c0.57-1.298,0.891-2.731,0.891-4.239C161.877,138.45,157.135,133.708,151.307,133.708L151.307,133.708z M151.307,150.843
	c-3.619,0-6.564-2.945-6.564-6.566c0-3.619,2.946-6.564,6.564-6.564c3.621,0,6.566,2.945,6.566,6.564
	C157.873,147.897,154.928,150.843,151.307,150.843L151.307,150.843z"></path>
</svg>
