<?xml version="1.0" encoding="utf-8"?>
<!-- Generator: Adobe Illustrator 16.0.0, SVG Export Plug-In . SVG Version: 6.00 Build 0)  -->
<!DOCTYPE svg PUBLIC "-//W3C//DTD SVG 1.1//EN" "http://www.w3.org/Graphics/SVG/1.1/DTD/svg11.dtd">
<svg version="1.1" id="Layer_1" xmlns="http://www.w3.org/2000/svg" xmlns:xlink="http://www.w3.org/1999/xlink" x="0px" y="0px"
	 width="1200px" height="1200px" viewBox="0 0 1200 1200" enable-background="new 0 0 1200 1200" xml:space="preserve">
<path fill="#005965" d="M843.322,647.548c-9.656,0-17.481,7.826-17.481,17.486c0,9.653,7.825,17.48,17.481,17.48
	c9.654,0,17.484-7.827,17.484-17.48C860.807,655.374,852.977,647.548,843.322,647.548L843.322,647.548z"/>
<text transform="matrix(1 0 0 1 995.6201 675.8301)" fill="#5CC9DC" font-family="'Gotham-Light'" font-size="31.7607">JBC</text>
<path fill="none" stroke="#5CC9DC" stroke-width="3" d="M299.786,364.403h674.291l7.93,14.294l-72.115,57.693v399.524H464.929
	c0,0,42.551-46.874,4.327-89.425c-38.221-42.549-157.214-192.548-157.214-192.548s-6.491-15.144-6.491-28.847
	C305.551,511.396,299.786,364.403,299.786,364.403L299.786,364.403z"/>
<path fill="none" stroke="#005965" stroke-width="3" d="M436.084,600.159h124.761v129.744h-76.444v-59.726h-48.317V600.159
	L436.084,600.159z M373.341,525.095h187.504v75.064H436.084v26.619h-39.663v-26.619h-23.08V525.095L373.341,525.095z
	 M343.774,408.989h51.203v-20.914h225.005v137.02H344.24l-0.465-114.666 M838.495,388.075v44.711h-38.221v92.773H619.982V388.075
	H838.495 M885.966,587.117H777.195v-61.558h23.079v-91.331h86.536L885.966,587.117L885.966,587.117z M777.195,729.903V587.117
	h109.615l0.979,142.786H777.195L777.195,729.903z"/>
<line fill="none" stroke="#005965" stroke-width="4" stroke-linecap="round" stroke-linejoin="round" stroke-dasharray="0,5.5581" x1="964.852" y1="525.993" x2="853.442" y2="525.993"/>
<path fill="#005965" d="M843.322,508.511c-9.656,0-17.481,7.827-17.481,17.482c0,9.654,7.825,17.482,17.481,17.482
	c9.654,0,17.484-7.828,17.484-17.482C860.807,516.337,852.977,508.511,843.322,508.511L843.322,508.511z"/>
<text transform="matrix(1 0 0 1 993.6357 536.771)" fill="#5CC9DC" font-family="'Gotham-Light'" font-size="31.7607">Pointcarré</text>
<line fill="none" stroke="#005965" stroke-width="4" stroke-linecap="round" stroke-linejoin="round" stroke-dasharray="0,5.5932" x1="964.743" y1="456.815" x2="731.892" y2="456.815"/>
<path fill="#005965" d="M721.722,439.333c-9.658,0-17.485,7.827-17.485,17.482c0,9.654,7.827,17.485,17.485,17.485
	c9.653,0,17.479-7.831,17.479-17.485C739.201,447.16,731.375,439.333,721.722,439.333L721.722,439.333z"/>
<text transform="matrix(1 0 0 1 992.6426 467.3784)" fill="#5CC9DC" font-family="'Gotham-Light'" font-size="31.7607">Intermarché</text>
<line fill="none" stroke="#005965" stroke-width="4" stroke-linecap="round" stroke-linejoin="round" stroke-dasharray="0,5.5932" x1="268.885" y1="658.84" x2="501.737" y2="658.84"/>
<path fill="#005965" d="M511.907,641.355c9.657,0,17.486,7.826,17.486,17.484c0,9.655-7.829,17.48-17.486,17.48
	c-9.654,0-17.481-7.825-17.481-17.48C494.426,649.182,502.253,641.355,511.907,641.355L511.907,641.355z"/>
<line fill="none" stroke="#005965" stroke-width="4" stroke-linecap="round" stroke-linejoin="round" stroke-dasharray="0,5.5932" x1="268.885" y1="566.082" x2="501.737" y2="566.082"/>
<path fill="#005965" d="M511.907,548.6c9.657,0,17.486,7.826,17.486,17.481s-7.829,17.481-17.486,17.481
	c-9.654,0-17.481-7.826-17.481-17.481S502.253,548.6,511.907,548.6L511.907,548.6z"/>
<line fill="none" stroke="#005965" stroke-width="4" stroke-linecap="round" stroke-linejoin="round" stroke-dasharray="0,5.5932" x1="268.885" y1="456.815" x2="501.737" y2="456.815"/>
<path fill="#005965" d="M511.907,439.333c9.657,0,17.486,7.827,17.486,17.482c0,9.654-7.829,17.485-17.486,17.485
	c-9.654,0-17.481-7.831-17.481-17.485C494.426,447.16,502.253,439.333,511.907,439.333L511.907,439.333z"/>
<text transform="matrix(1 0 0 1 94.7383 668.75)" fill="#5CC9DC" font-family="'Gotham-Light'" font-size="31.7607">Brantano</text>
<text transform="matrix(1 0 0 1 11.7124 575.9722)" fill="#5CC9DC" font-family="'Gotham-Light'" font-size="31.7607">Shoe Discount</text>
<text transform="matrix(1 0 0 1 157.2275 465.7241)" fill="#5CC9DC" font-family="'Gotham-Light'" font-size="31.7607">Brico</text>
<text transform="matrix(1 0 0 1 648.5459 672.7695)" fill="#5CC9DC" font-family="'MyriadPro-Regular'" font-size="92.5133">P</text>
<line fill="none" stroke="#005965" stroke-width="4" stroke-linecap="round" stroke-linejoin="round" stroke-dasharray="0,5.5581" x1="964.852" y1="665.034" x2="853.442" y2="665.034"/>
</svg>
