<?xml version="1.0" encoding="utf-8"?>
<!-- Generator: Adobe Illustrator 16.0.0, SVG Export Plug-In . SVG Version: 6.00 Build 0)  -->
<!DOCTYPE svg PUBLIC "-//W3C//DTD SVG 1.1//EN" "http://www.w3.org/Graphics/SVG/1.1/DTD/svg11.dtd">
<svg version="1.1" id="Layer_1" xmlns="http://www.w3.org/2000/svg" xmlns:xlink="http://www.w3.org/1999/xlink" x="0px" y="0px"
	 width="300px" height="300px" viewBox="0 0 300 300" enable-background="new 0 0 300 300" xml:space="preserve">
<g>
	<path fill="#231F20" d="M143.698,139.875c-0.52,0-1.026,0.053-1.486,0.155c-3.672,0.662-6.337,3.853-6.337,7.587
		c0,3.508,2.367,6.576,5.705,7.444c0.053,0.021,0.106,0.04,0.159,0.06c-0.427,2.227-2.59,5.092-2.614,5.122l-0.781,1.026
		l1.269-0.231c3.495-0.64,11.686-5.977,11.686-13.421C151.299,144.624,149.235,139.875,143.698,139.875z M140.756,159.641
		c0.791-1.23,1.876-3.18,2.035-4.81l0.039-0.4l-0.382-0.124c-0.175-0.057-0.345-0.115-0.563-0.195
		c-2.949-0.771-5.009-3.441-5.009-6.494c0-3.25,2.319-6.027,5.533-6.607c0.408-0.09,0.842-0.135,1.29-0.135
		c4.809,0,6.601,4.135,6.601,6.742C150.299,153.944,144.115,158.28,140.756,159.641z"/>
	<path fill="#231F20" d="M159.232,139.875c-0.521,0-1.026,0.053-1.485,0.155c-3.673,0.662-6.339,3.853-6.339,7.587
		c0,3.508,2.368,6.576,5.706,7.444c0.053,0.021,0.106,0.04,0.159,0.06c-0.428,2.228-2.59,5.092-2.613,5.122l-0.78,1.026l1.269-0.231
		c3.494-0.64,11.684-5.977,11.684-13.421C166.832,144.624,164.769,139.875,159.232,139.875z M156.291,159.641
		c0.79-1.23,1.875-3.179,2.035-4.81l0.039-0.4l-0.383-0.124c-0.176-0.057-0.345-0.115-0.563-0.195
		c-2.95-0.771-5.011-3.441-5.011-6.494c0-3.25,2.32-6.027,5.535-6.607c0.407-0.09,0.841-0.135,1.289-0.135
		c4.842,0,6.6,4.032,6.6,6.742C165.832,153.943,159.649,158.28,156.291,159.641z"/>
</g>
</svg>
